<svg xmlns="http://www.w3.org/2000/svg" version="1.1" xmlns:xlink="http://www.w3.org/1999/xlink" xmlns:svgjs="http://svgjs.dev/svgjs" width="2000" height="1247" viewBox="0 0 2000 1247"><g transform="matrix(1,0,0,1,-1.2121212121212466,0.504858299595071)"><svg viewBox="0 0 396 247" data-background-color="#d2d6dc" preserveAspectRatio="xMidYMid meet" height="1247" width="2000" xmlns="http://www.w3.org/2000/svg" xmlns:xlink="http://www.w3.org/1999/xlink"><g id="tight-bounds" transform="matrix(1,0,0,1,0.2400000000000091,-0.09999999999999432)"><svg viewBox="0 0 395.52 247.2" height="247.2" width="395.52"><g><svg></svg></g><g><svg viewBox="0 0 395.52 247.2" height="247.2" width="395.52"><g><g><path xmlns="http://www.w3.org/2000/svg" d="M136.048 247.2h-76.034v-15.207h33.95l40.62-60.546 51.006 0zM90.074 0h51.633l50.074 75.753h-52.022zM253.813 0h51.633l-49.685 75.753h-52.022zM301.202 231.993h34.304v15.207h-76.034l-49.542-75.753 50.844 0z" fill="#636365" fill-rule="nonzero" stroke="none" stroke-width="1" stroke-linecap="butt" stroke-linejoin="miter" stroke-miterlimit="10" stroke-dasharray="" stroke-dashoffset="0" font-family="none" font-weight="none" font-size="none" text-anchor="none" style="mix-blend-mode: normal" data-fill-palette-color="tertiary"></path></g></g><g transform="matrix(1,0,0,1,0,83.96438757835364)"><svg viewBox="0 0 395.52 79.27122484329271" height="79.27122484329271" width="395.52"><g><svg viewBox="0 0 395.52 79.27122484329271" height="79.27122484329271" width="395.52"><g><svg viewBox="0 0 395.52 79.27122484329271" height="79.27122484329271" width="395.52"><g id="textblocktransform"><svg viewBox="0 0 395.52 79.27122484329271" height="79.27122484329271" width="395.52" id="textblock"><g><svg viewBox="0 0 395.52 60.78638132884596" height="60.78638132884596" width="395.52"><rect width="395.52" height="60.78638132884596" x="0" y="0" opacity="1" fill="#636365" data-fill-palette-color="tertiary"></rect><g transform="matrix(1,0,0,1,16.4231935224,16.4231935224)"><svg width="362.6736129552" viewBox="-2.6500000953674316 -35.79999923706055 464.66998291015625 35.79999923706055" height="27.939994284045966" data-palette-color="#d2d6dc"><path d="M8.1 0L-2.65 0-2.65-2.15 2.15-2.15 12.75-17.95 1.6-34.95 8.9-34.95 16.7-23.15 16.95-23.15 24.75-34.95 32.05-34.95 20.9-17.95 31.45-2.15 36.3-2.15 36.3 0 25.55 0 16.95-13.15 16.7-13.15 8.1 0ZM61.65-2.15L72.05-2.15 72.05 0 33.65 0 33.65-2.15 44-2.15Q38.05-6.3 38.05-15.3L38.05-15.3 38.05-34.95 43.95-34.95 43.95-15.55Q43.95-10.75 46.35-7.95 48.75-5.15 52.85-5.15 56.95-5.15 59.35-7.95 61.75-10.75 61.75-15.55L61.75-15.55 61.75-34.95 67.65-34.95 67.65-15.3Q67.65-6.25 61.65-2.15L61.65-2.15ZM102.3-2.15L108.85-2.15 108.85 0 72.05 0 72.05-2.15 83.15-2.15Q79.2-4.5 76.92-8.55 74.65-12.6 74.65-17.7L74.65-17.7Q74.65-25.4 79.97-30.6 85.3-35.8 93.42-35.8 101.55-35.8 107-29.8L107-29.8 103.25-25.7Q100.75-28.1 98.52-29.05 96.3-30 93.3-30L93.3-30Q88-30 84.4-26.58 80.8-23.15 80.8-17.82 80.8-12.5 84.37-8.93 87.95-5.35 92.85-5.35L92.85-5.35Q95.9-5.35 98.1-6.38 100.3-7.4 102.7-9.65L102.7-9.65 106.5-5.75Q104.3-3.35 102.3-2.15L102.3-2.15ZM108.84-2.15L113.69-2.15 113.69-34.95 119.59-34.95 119.59-17.9 135.59-34.95 143.09-34.95 129.04-19.65 141.74-2.1 141.74-2.15 146.59-2.15 146.59 0 136.29 0 124.69-15.3 119.59-9.8 119.59 0 108.84 0 108.84-2.15ZM170.74-2.15L175.59-2.15 175.59 0 144.04 0 144.04-2.15 148.89-2.15 148.89-34.95 154.79-34.95 154.79-5.6 170.74-5.6 170.74-2.15ZM172.34-2.15L177.19-2.15 177.19-34.95 201.74-34.95 201.74-29.4 183.09-29.4 183.09-20.15 199.84-20.15 199.84-14.9 183.09-14.9 183.09-5.55 202.34-5.55 202.34-2.15 207.19-2.15 207.19 0 172.34 0 172.34-2.15ZM230.29-2.15L236.54-2.15 236.54 0 205.04 0 205.04-2.15 211.44-2.15Q209.04-3.4 207.04-5.25L207.04-5.25 210.74-9.7Q216.04-5.1 221.74-5.1L221.74-5.1Q224.59-5.1 226.26-6.33 227.94-7.55 227.94-9.58 227.94-11.6 226.36-12.73 224.79-13.85 220.94-14.78 217.09-15.7 215.09-16.48 213.09-17.25 211.54-18.5L211.54-18.5Q208.44-20.85 208.44-25.7 208.44-30.55 211.96-33.18 215.49-35.8 220.69-35.8L220.69-35.8Q224.04-35.8 227.34-34.7 230.64-33.6 233.04-31.6L233.04-31.6 229.89-27.15Q228.34-28.55 225.69-29.45 223.04-30.35 220.46-30.35 217.89-30.35 216.24-29.3 214.59-28.25 214.59-26.13 214.59-24 216.24-22.88 217.89-21.75 223.26-20.45 228.64-19.15 231.36-16.8 234.09-14.45 234.09-10.2L234.09-10.2Q234.09-5.05 230.29-2.15L230.29-2.15ZM261.78-2.15L268.03-2.15 268.03 0 236.53 0 236.53-2.15 242.93-2.15Q240.53-3.4 238.53-5.25L238.53-5.25 242.23-9.7Q247.53-5.1 253.23-5.1L253.23-5.1Q256.08-5.1 257.76-6.33 259.43-7.55 259.43-9.58 259.43-11.6 257.86-12.73 256.28-13.85 252.43-14.78 248.58-15.7 246.58-16.48 244.58-17.25 243.03-18.5L243.03-18.5Q239.93-20.85 239.93-25.7 239.93-30.55 243.46-33.18 246.98-35.8 252.18-35.8L252.18-35.8Q255.53-35.8 258.83-34.7 262.13-33.6 264.53-31.6L264.53-31.6 261.38-27.15Q259.83-28.55 257.18-29.45 254.53-30.35 251.96-30.35 249.38-30.35 247.73-29.3 246.08-28.25 246.08-26.13 246.08-24 247.73-22.88 249.38-21.75 254.76-20.45 260.13-19.15 262.86-16.8 265.58-14.45 265.58-10.2L265.58-10.2Q265.58-5.05 261.78-2.15L261.78-2.15ZM278.73-12.3L271.63-12.3 271.63-17.55 288.23-17.55 288.23-12.3 281.08-12.3 281.08-2.15 291.83-2.15 291.83 0 268.03 0 268.03-2.15 278.73-2.15 278.73-12.3ZM307.03-2.15L319.18-2.15 319.18 0 288.98 0 288.98-2.15 301.13-2.15 301.13-29.55 290.53-29.55 290.53-34.95 317.63-34.95 317.63-29.55 307.03-29.55 307.03-2.15ZM348.78-2.15L360.23-2.15 360.23 0 318.23 0 318.23-2.15 329.68-2.15Q325.58-4.5 323.2-8.6 320.83-12.7 320.83-17.75L320.83-17.75Q320.83-25.45 326.13-30.63 331.43-35.8 339.23-35.8 347.03-35.8 352.33-30.63 357.63-25.45 357.63-17.75L357.63-17.75Q357.63-12.75 355.25-8.6 352.88-4.45 348.78-2.15L348.78-2.15ZM348-26.7Q344.43-30.4 339.23-30.4 334.03-30.4 330.45-26.7 326.88-23 326.88-17.73 326.88-12.45 330.45-8.75 334.03-5.05 339.23-5.05 344.43-5.05 348-8.75 351.58-12.45 351.58-17.73 351.58-23 348-26.7ZM390.77-2.15L402.22-2.15 402.22 0 360.22 0 360.22-2.15 371.67-2.15Q367.57-4.5 365.2-8.6 362.82-12.7 362.82-17.75L362.82-17.75Q362.82-25.45 368.12-30.63 373.42-35.8 381.22-35.8 389.02-35.8 394.32-30.63 399.62-25.45 399.62-17.75L399.62-17.75Q399.62-12.75 397.25-8.6 394.87-4.45 390.77-2.15L390.77-2.15ZM390-26.7Q386.42-30.4 381.22-30.4 376.02-30.4 372.45-26.7 368.87-23 368.87-17.73 368.87-12.45 372.45-8.75 376.02-5.05 381.22-5.05 386.42-5.05 390-8.75 393.57-12.45 393.57-17.73 393.57-23 390-26.7ZM428.92-2.15L433.77-2.15 433.77 0 402.22 0 402.22-2.15 407.07-2.15 407.07-34.95 412.97-34.95 412.97-5.6 428.92-5.6 428.92-2.15ZM455.77-2.15L462.02-2.15 462.02 0 430.52 0 430.52-2.15 436.92-2.15Q434.52-3.4 432.52-5.25L432.52-5.25 436.22-9.7Q441.52-5.1 447.22-5.1L447.22-5.1Q450.07-5.1 451.74-6.33 453.42-7.55 453.42-9.58 453.42-11.6 451.84-12.73 450.27-13.85 446.42-14.78 442.57-15.7 440.57-16.48 438.57-17.25 437.02-18.5L437.02-18.5Q433.92-20.85 433.92-25.7 433.92-30.55 437.44-33.18 440.97-35.8 446.17-35.8L446.17-35.8Q449.52-35.8 452.82-34.7 456.12-33.6 458.52-31.6L458.52-31.6 455.37-27.15Q453.82-28.55 451.17-29.45 448.52-30.35 445.94-30.35 443.37-30.35 441.72-29.3 440.07-28.25 440.07-26.13 440.07-24 441.72-22.88 443.37-21.75 448.74-20.45 454.12-19.15 456.84-16.8 459.57-14.45 459.57-10.2L459.57-10.2Q459.57-5.05 455.77-2.15L455.77-2.15Z" opacity="1" transform="matrix(1,0,0,1,0,0)" fill="#d2d6dc" class="wordmark-text-0" data-fill-palette-color="quaternary" id="text-0"></path></svg></g></svg></g><g transform="matrix(1,0,0,1,0,68.99797809004596)"><svg viewBox="0 0 395.52 10.273246753246752" height="10.273246753246752" width="395.52"><g transform="matrix(1,0,0,1,0,0)"><svg width="395.52" viewBox="0 -50 1924.9000244140625 43.75" height="10.273246753246752" data-palette-color="#89939e"><path d="M37.5-6.25L6.25-6.25 6.25-12.5 0-12.5 0-18.75 12.5-18.75 12.5-12.5 31.25-12.5 31.25-25 6.25-25 6.25-31.25 0-31.25 0-43.75 6.25-43.75 6.25-50 37.5-50 37.5-43.75 43.75-43.75 43.75-37.5 31.25-37.5 31.25-43.75 12.5-43.75 12.5-31.25 37.5-31.25 37.5-25 43.75-25 43.75-12.5 37.5-12.5 37.5-6.25ZM93.75-6.25L56.25-6.25 56.25-12.5 50-12.5 50-37.5 62.5-37.5 62.5-12.5 81.25-12.5 81.25-37.5 93.75-37.5 93.75-6.25ZM143.75-6.25L106.25-6.25 106.25-12.5 100-12.5 100-31.25 106.25-31.25 106.25-37.5 143.75-37.5 143.75-31.25 112.5-31.25 112.5-12.5 143.75-12.5 143.75-6.25ZM162.49-6.25L149.99-6.25 149.99-50 162.49-50 162.49-25 174.99-25 174.99-31.25 181.24-31.25 181.24-37.5 193.74-37.5 193.74-31.25 187.49-31.25 187.49-25 181.24-25 181.24-18.75 187.49-18.75 187.49-12.5 193.74-12.5 193.74-6.25 181.24-6.25 181.24-12.5 174.99-12.5 174.99-18.75 162.49-18.75 162.49-6.25ZM243.74-6.25L206.24-6.25 206.24-12.5 218.74-12.5 218.74-43.75 212.49-43.75 212.49-50 231.24-50 231.24-12.5 243.74-12.5 243.74-6.25ZM287.49-6.25L256.24-6.25 256.24-12.5 249.99-12.5 249.99-31.25 256.24-31.25 256.24-37.5 287.49-37.5 287.49-31.25 293.74-31.25 293.74-18.75 262.49-18.75 262.49-12.5 287.49-12.5 287.49-6.25ZM262.49-31.25L262.49-25 281.24-25 281.24-31.25 262.49-31.25ZM337.49-6.25L299.99-6.25 299.99-12.5 331.24-12.5 331.24-18.75 306.24-18.75 306.24-25 299.99-25 299.99-31.25 306.24-31.25 306.24-37.5 337.49-37.5 337.49-31.25 312.49-31.25 312.49-25 337.49-25 337.49-18.75 343.74-18.75 343.74-12.5 337.49-12.5 337.49-6.25ZM387.48-6.25L349.98-6.25 349.98-12.5 381.23-12.5 381.23-18.75 356.23-18.75 356.23-25 349.98-25 349.98-31.25 356.23-31.25 356.23-37.5 387.48-37.5 387.48-31.25 362.48-31.25 362.48-25 387.48-25 387.48-18.75 393.73-18.75 393.73-12.5 387.48-12.5 387.48-6.25ZM481.23-6.25L468.73-6.25 468.73-31.25 456.23-31.25 456.23-37.5 468.73-37.5 468.73-50 481.23-50 481.23-37.5 493.73-37.5 493.73-31.25 481.23-31.25 481.23-6.25ZM537.48-6.25L506.23-6.25 506.23-12.5 499.98-12.5 499.98-31.25 506.23-31.25 506.23-37.5 537.48-37.5 537.48-31.25 543.73-31.25 543.73-12.5 537.48-12.5 537.48-6.25ZM512.48-31.25L512.48-12.5 531.23-12.5 531.23-31.25 512.48-31.25ZM587.47-6.25L556.22-6.25 556.22-12.5 549.97-12.5 549.97-31.25 556.22-31.25 556.22-37.5 587.47-37.5 587.47-31.25 593.72-31.25 593.72-12.5 587.47-12.5 587.47-6.25ZM562.47-31.25L562.47-12.5 581.22-12.5 581.22-31.25 562.47-31.25ZM643.72-6.25L606.22-6.25 606.22-12.5 618.72-12.5 618.72-43.75 612.47-43.75 612.47-50 631.22-50 631.22-12.5 643.72-12.5 643.72-6.25ZM687.47-6.25L649.97-6.25 649.97-12.5 681.22-12.5 681.22-18.75 656.22-18.75 656.22-25 649.97-25 649.97-31.25 656.22-31.25 656.22-37.5 687.47-37.5 687.47-31.25 662.47-31.25 662.47-25 687.47-25 687.47-18.75 693.72-18.75 693.72-12.5 687.47-12.5 687.47-6.25ZM781.21-6.25L768.71-6.25 768.71-31.25 756.21-31.25 756.21-37.5 768.71-37.5 768.71-43.75 774.96-43.75 774.96-50 793.71-50 793.71-43.75 781.21-43.75 781.21-37.5 793.71-37.5 793.71-31.25 781.21-31.25 781.21-6.25ZM837.46-6.25L806.21-6.25 806.21-12.5 799.96-12.5 799.96-31.25 806.21-31.25 806.21-37.5 837.46-37.5 837.46-31.25 843.71-31.25 843.71-12.5 837.46-12.5 837.46-6.25ZM812.46-31.25L812.46-12.5 831.21-12.5 831.21-31.25 812.46-31.25ZM868.71-37.5L868.71-31.25 874.96-31.25 874.96-25 868.71-25 868.71-6.25 856.21-6.25 856.21-37.5 868.71-37.5ZM874.96-37.5L893.71-37.5 893.71-31.25 874.96-31.25 874.96-37.5ZM962.45-6.25L949.95-6.25 949.95-18.75 956.2-18.75 956.2-25 962.45-25 962.45-31.25 956.2-31.25 956.2-37.5 949.95-37.5 949.95-50 962.45-50 962.45-37.5 968.7-37.5 968.7-31.25 974.95-31.25 974.95-37.5 981.2-37.5 981.2-50 993.7-50 993.7-37.5 987.45-37.5 987.45-31.25 981.2-31.25 981.2-25 987.45-25 987.45-18.75 993.7-18.75 993.7-6.25 981.2-6.25 981.2-18.75 974.95-18.75 974.95-25 968.7-25 968.7-18.75 962.45-18.75 962.45-6.25ZM1031.2-6.25L1018.7-6.25 1018.7-31.25 1006.2-31.25 1006.2-37.5 1018.7-37.5 1018.7-43.75 1024.95-43.75 1024.95-50 1043.7-50 1043.7-43.75 1031.2-43.75 1031.2-37.5 1043.7-37.5 1043.7-31.25 1031.2-31.25 1031.2-6.25ZM1093.7-6.25L1056.2-6.25 1056.2-12.5 1049.95-12.5 1049.95-31.25 1056.2-31.25 1056.2-37.5 1093.7-37.5 1093.7-31.25 1062.45-31.25 1062.45-12.5 1093.7-12.5 1093.7-6.25ZM1137.44-6.25L1106.19-6.25 1106.19-12.5 1099.94-12.5 1099.94-31.25 1106.19-31.25 1106.19-37.5 1137.44-37.5 1137.44-31.25 1143.69-31.25 1143.69-18.75 1112.44-18.75 1112.44-12.5 1137.44-12.5 1137.44-6.25ZM1112.44-31.25L1112.44-25 1131.19-25 1131.19-31.25 1112.44-31.25ZM1231.19-6.25L1199.94-6.25 1199.94-50 1231.19-50 1231.19-43.75 1237.44-43.75 1237.44-37.5 1243.69-37.5 1243.69-18.75 1237.44-18.75 1237.44-12.5 1231.19-12.5 1231.19-6.25ZM1212.44-43.75L1212.44-12.5 1224.94-12.5 1224.94-18.75 1231.19-18.75 1231.19-37.5 1224.94-37.5 1224.94-43.75 1212.44-43.75ZM1287.44-6.25L1256.19-6.25 1256.19-12.5 1249.94-12.5 1249.94-31.25 1256.19-31.25 1256.19-37.5 1287.44-37.5 1287.44-31.25 1293.69-31.25 1293.69-18.75 1262.44-18.75 1262.44-12.5 1287.44-12.5 1287.44-6.25ZM1262.44-31.25L1262.44-25 1281.19-25 1281.19-31.25 1262.44-31.25ZM1337.43-6.25L1306.18-6.25 1306.18-12.5 1299.93-12.5 1299.93-50 1312.43-50 1312.43-37.5 1337.43-37.5 1337.43-31.25 1343.68-31.25 1343.68-12.5 1337.43-12.5 1337.43-6.25ZM1312.43-31.25L1312.43-12.5 1331.18-12.5 1331.18-31.25 1312.43-31.25ZM1381.18-43.75L1368.68-43.75 1368.68-50 1381.18-50 1381.18-43.75ZM1393.68-6.25L1356.18-6.25 1356.18-12.5 1368.68-12.5 1368.68-31.25 1362.43-31.25 1362.43-37.5 1381.18-37.5 1381.18-12.5 1393.68-12.5 1393.68-6.25ZM1443.68-6.25L1406.18-6.25 1406.18-12.5 1399.93-12.5 1399.93-18.75 1406.18-18.75 1406.18-25 1431.18-25 1431.18-31.25 1406.18-31.25 1406.18-37.5 1437.43-37.5 1437.43-31.25 1443.68-31.25 1443.68-6.25ZM1412.43-18.75L1412.43-12.5 1431.18-12.5 1431.18-18.75 1412.43-18.75ZM1462.43-6.25L1449.93-6.25 1449.93-37.5 1487.43-37.5 1487.43-31.25 1493.68-31.25 1493.68-6.25 1481.18-6.25 1481.18-31.25 1462.43-31.25 1462.43-6.25ZM1593.67-6.25L1556.17-6.25 1556.17-12.5 1549.92-12.5 1549.92-31.25 1556.17-31.25 1556.17-37.5 1581.17-37.5 1581.17-50 1593.67-50 1593.67-6.25ZM1562.42-31.25L1562.42-12.5 1581.17-12.5 1581.17-31.25 1562.42-31.25ZM1631.17-43.75L1618.67-43.75 1618.67-50 1631.17-50 1631.17-43.75ZM1643.67-6.25L1606.17-6.25 1606.17-12.5 1618.67-12.5 1618.67-31.25 1612.42-31.25 1612.42-37.5 1631.17-37.5 1631.17-12.5 1643.67-12.5 1643.67-6.25ZM1687.42-6.25L1649.92-6.25 1649.92-12.5 1681.17-12.5 1681.17-18.75 1656.17-18.75 1656.17-25 1649.92-25 1649.92-31.25 1656.17-31.25 1656.17-37.5 1687.42-37.5 1687.42-31.25 1662.42-31.25 1662.42-25 1687.42-25 1687.42-18.75 1693.67-18.75 1693.67-12.5 1687.42-12.5 1687.42-6.25ZM1731.16-6.25L1718.66-6.25 1718.66-31.25 1706.16-31.25 1706.16-37.5 1718.66-37.5 1718.66-50 1731.16-50 1731.16-37.5 1743.66-37.5 1743.66-31.25 1731.16-31.25 1731.16-6.25ZM1768.66-37.5L1768.66-31.25 1774.91-31.25 1774.91-25 1768.66-25 1768.66-6.25 1756.16-6.25 1756.16-37.5 1768.66-37.5ZM1774.91-37.5L1793.66-37.5 1793.66-31.25 1774.91-31.25 1774.91-37.5ZM1837.41-6.25L1806.16-6.25 1806.16-12.5 1799.91-12.5 1799.91-31.25 1806.16-31.25 1806.16-37.5 1837.41-37.5 1837.41-31.25 1843.66-31.25 1843.66-12.5 1837.41-12.5 1837.41-6.25ZM1812.41-31.25L1812.41-12.5 1831.16-12.5 1831.16-31.25 1812.41-31.25ZM1887.41-6.25L1849.91-6.25 1849.91-12.5 1881.16-12.5 1881.16-18.75 1856.16-18.75 1856.16-25 1849.91-25 1849.91-31.25 1856.16-31.25 1856.16-37.5 1887.41-37.5 1887.41-31.25 1862.41-31.25 1862.41-25 1887.41-25 1887.41-18.75 1893.66-18.75 1893.66-12.5 1887.41-12.5 1887.41-6.25ZM1924.9-6.25L1912.4-6.25 1912.4-18.75 1924.9-18.75 1924.9-6.25Z" opacity="1" transform="matrix(1,0,0,1,0,0)" fill="#89939e" class="slogan-text-1" data-fill-palette-color="secondary" id="text-1"></path></svg></g></svg></g></svg></g></svg></g><g></g></svg></g></svg></g></svg></g><defs></defs></svg><rect width="395.52" height="247.2" fill="none" stroke="none" visibility="hidden"></rect></g></svg></g></svg>